<?xml version="1.0" encoding="UTF-8"?>
<!DOCTYPE svg PUBLIC "-//W3C//DTD SVG 1.1//EN" "http://www.w3.org/Graphics/SVG/1.1/DTD/svg11.dtd">
<!-- Creator: CorelDRAW X7 -->
<svg xmlns="http://www.w3.org/2000/svg" xml:space="preserve" width="650px" height="602px" version="1.1" style="shape-rendering:geometricPrecision; text-rendering:geometricPrecision; image-rendering:optimizeQuality; fill-rule:evenodd; clip-rule:evenodd"
viewBox="0 0 650 603"
 xmlns:xlink="http://www.w3.org/1999/xlink">
 <defs>
  <style type="text/css">
   <![CDATA[
    .fil1 {fill:#56698F}
    .fil0 {fill:#E31E24}
   ]]>
  </style>
 </defs>
 <g id="Слой_x0020_1">
  <metadata id="CorelCorpID_0Corel-Layer"/>
  <path class="fil0" d="M456 555l-42 0c-7,-35 -27,-121 -49,-146 2,34 22,105 22,146l-274 0c-3,-41 0,-90 0,-132l0 -200c0,-20 -6,-21 -24,-42 -16,-18 -35,-33 -53,-47 -7,-5 -15,-9 -20,-15 74,6 173,55 232,96 11,8 19,14 31,23 71,58 122,139 155,229 6,16 22,72 22,88z"/>
  <path class="fil0" d="M624 262c-7,-3 -12,-7 -18,-12 -6,-4 -11,-8 -18,-12 -28,-20 -82,-51 -114,-60l5 5c22,16 46,30 67,49 38,35 39,38 72,75 5,6 6,6 6,15 0,12 1,31 -1,42l-69 -74c-38,-36 -93,-81 -139,-107 -83,-46 -189,-87 -301,-91 -3,-10 -1,-36 -1,-48l511 0 0 218z"/>
  <path class="fil1" d="M624 522l0 33 -54 0c-8,-32 -16,-57 -27,-86 -5,-12 -13,-29 -19,-39 -5,-10 -17,-30 -20,-38l46 0c14,0 11,2 24,24 4,6 8,12 12,19 9,16 38,69 38,87z"/>
  <path class="fil1" d="M542 369c-69,0 -47,6 -69,-22 -10,-13 -25,-32 -35,-43 -6,-5 -16,-16 -20,-22 12,0 43,-3 51,2 12,8 66,71 73,85z"/>
  <path class="fil1" d="M442 260l-42 0c-9,0 -7,-1 -12,-5 -23,-21 -56,-41 -66,-51 44,-3 43,-3 71,16 8,6 16,13 24,19 4,3 8,6 12,9l13 12z"/>
  <path class="fil1" d="M335 186c-40,3 -40,1 -68,-14 -8,-5 -17,-9 -26,-13 -9,-4 -22,-8 -28,-14 35,-3 41,1 69,13 11,5 47,21 53,28z"/>
  <path class="fil1" d="M206 131c-29,3 -39,-2 -64,-10 -17,-6 -42,-13 -59,-16 21,0 110,17 123,26z"/>
 </g>
</svg>
