<?xml version="1.0" encoding="UTF-8"?>
<!DOCTYPE svg PUBLIC "-//W3C//DTD SVG 1.1//EN" "http://www.w3.org/Graphics/SVG/1.1/DTD/svg11.dtd">
<!-- Creator: CorelDRAW X7 -->
<svg xmlns="http://www.w3.org/2000/svg" xml:space="preserve" width="3118px" height="591px" version="1.1" style="shape-rendering:geometricPrecision; text-rendering:geometricPrecision; image-rendering:optimizeQuality; fill-rule:evenodd; clip-rule:evenodd"
viewBox="0 0 3118 591"
 xmlns:xlink="http://www.w3.org/1999/xlink">
 <defs>
  <style type="text/css">
   <![CDATA[
    .fil3 {fill:#56698F}
    .fil2 {fill:#E31E24}
    .fil0 {fill:#2B2A29;fill-rule:nonzero}
    .fil1 {fill:#56698F;fill-rule:nonzero}
   ]]>
  </style>
 </defs>
 <g id="Слой_x0020_1">
  <metadata id="CorelCorpID_0Corel-Layer"/>
  <g id="_2861474999648">
   <path class="fil0" d="M754 302l0 -164 49 72 39 0 48 -72 0 164 68 0 0 -269 -68 0 -69 104 -68 -104 -68 0 0 269 69 0zm464 0l0 -60 -139 0 0 -53 108 0 0 -59 -108 0 0 -36 136 0 0 -61 -205 0 0 269 208 0zm133 6c36,0 65,-8 86,-25 21,-16 32,-37 32,-61 0,-29 -14,-50 -41,-63 17,-9 33,-27 33,-51 0,-24 -10,-43 -30,-58 -19,-15 -45,-22 -78,-22 -32,0 -63,8 -93,24l0 60c28,-15 57,-22 90,-22 27,0 42,9 42,22 0,15 -12,22 -35,22l-42 0 0 55 34 0c32,0 48,8 48,25 0,19 -20,31 -55,31 -31,0 -67,-12 -91,-30l0 66c25,18 59,27 100,27zm365 -6l0 -60 -139 0 0 -53 108 0 0 -59 -108 0 0 -36 136 0 0 -61 -205 0 0 269 208 0zm108 0l0 -112 102 0 0 112 69 0 0 -269 -69 0 0 96 -102 0 0 -96 -69 0 0 269 69 0zm364 6c27,0 52,-6 74,-17l0 -69c-19,15 -42,22 -71,22 -23,0 -43,-7 -59,-21 -15,-15 -23,-33 -23,-55 0,-22 8,-41 23,-55 15,-14 34,-21 57,-21 24,0 47,6 68,19l0 -68c-21,-10 -44,-15 -69,-15 -43,0 -79,13 -108,39 -28,26 -42,60 -42,101 0,41 14,74 43,100 28,27 64,40 107,40zm186 -6l0 -119 106 119 84 0 -124 -145 105 -124 -83 0 -88 103 0 -103 -69 0 0 269 69 0zm266 -80c-14,-14 -20,-32 -20,-54 0,-22 6,-41 20,-55 13,-14 30,-21 50,-21 21,0 37,7 51,21 13,14 20,33 20,55 0,22 -7,40 -20,54 -14,15 -30,22 -51,22 -20,0 -37,-7 -50,-22zm152 45c27,-27 40,-60 40,-99 0,-39 -13,-72 -40,-99 -27,-28 -61,-41 -102,-41 -40,0 -74,13 -101,41 -27,27 -41,60 -41,99 0,39 14,72 41,99 27,27 61,41 101,41 41,0 75,-14 102,-41zm291 35l0 -60 -138 0 0 -53 107 0 0 -59 -107 0 0 -36 135 0 0 -61 -205 0 0 269 208 0z"/>
   <path class="fil1" d="M691 555l0 -26 94 0 0 26 19 0 0 -44 -18 0 0 -107 -83 0 0 17c0,23 -1,41 -4,55 -3,13 -8,25 -15,35l-12 0 0 44 19 0zm15 -44c6,-11 10,-23 13,-37 2,-14 3,-31 3,-52l44 0 0 89 -60 0zm147 -12c-8,-9 -12,-20 -12,-33 0,-13 4,-24 12,-33 9,-9 19,-13 31,-13 13,0 23,4 31,13 9,9 13,20 13,33 0,13 -4,24 -13,33 -8,9 -18,14 -31,14 -12,0 -22,-5 -31,-14zm77 13c12,-12 18,-28 18,-46 0,-18 -6,-34 -18,-46 -12,-12 -27,-19 -46,-19 -18,0 -33,7 -45,19 -12,12 -18,28 -18,46 0,18 6,34 18,46 12,13 27,19 45,19 19,0 34,-6 46,-19zm64 17l0 -52 35 0c13,0 23,-3 30,-10 8,-7 11,-16 11,-27 0,-11 -3,-20 -11,-26 -7,-7 -17,-10 -30,-10l-54 0 0 125 19 0zm0 -107l33 0c15,0 24,6 24,18 0,12 -9,19 -24,19l-33 0 0 -37zm127 77c-8,-9 -12,-20 -12,-33 0,-13 4,-24 12,-33 9,-9 19,-13 31,-13 13,0 23,4 31,13 9,9 13,20 13,33 0,13 -4,24 -13,33 -8,9 -18,14 -31,14 -12,0 -22,-5 -31,-14zm77 13c12,-12 18,-28 18,-46 0,-18 -6,-34 -18,-46 -12,-12 -27,-19 -46,-19 -18,0 -33,7 -45,19 -12,12 -18,28 -18,46 0,18 6,34 18,46 12,13 27,19 45,19 19,0 34,-6 46,-19zm48 17l53 -58 0 58 20 0 0 -58 53 58 26 0 -60 -66 52 -59 -24 0 -47 53 0 -53 -20 0 0 53 -47 -53 -24 0 52 59 -59 66 25 0zm189 0l0 -58 65 0 0 58 19 0 0 -125 -19 0 0 49 -65 0 0 -49 -20 0 0 125 20 0zm144 -30c-9,-9 -13,-20 -13,-33 0,-13 4,-24 13,-33 8,-9 19,-13 31,-13 12,0 22,4 31,13 8,9 13,20 13,33 0,13 -5,24 -13,33 -9,9 -19,14 -31,14 -12,0 -23,-5 -31,-14zm76 13c13,-12 19,-28 19,-46 0,-18 -6,-34 -19,-46 -12,-12 -27,-19 -45,-19 -19,0 -34,7 -46,19 -12,12 -18,28 -18,46 0,18 6,34 18,46 12,13 27,19 46,19 18,0 33,-6 45,-19zm137 17l0 -18 -72 0 0 -40 56 0 0 -18 -56 0 0 -31 69 0 0 -18 -89 0 0 125 92 0zm86 2c15,0 27,-10 36,-29l46 -98 -21 0 -31 67 -37 -67 -22 0 49 88c-4,8 -7,14 -11,17 -3,2 -7,4 -12,4 -5,0 -10,-1 -14,-3l0 18c4,2 10,3 17,3zm121 -2l0 -107 62 0 0 107 20 0 0 -125 -102 0 0 125 20 0zm132 0l0 -52 34 0c13,0 24,-3 31,-10 7,-7 11,-16 11,-27 0,-11 -4,-20 -11,-26 -7,-7 -18,-10 -31,-10l-53 0 0 125 19 0zm0 -107l33 0c15,0 23,6 23,18 0,12 -8,19 -23,19l-33 0 0 -37zm94 107l14 -31 59 0 14 31 21 0 -55 -126 -19 0 -54 126 20 0zm44 -101l22 52 -45 0 23 -52zm145 101c13,0 23,-4 30,-10 8,-6 12,-15 12,-26 0,-18 -12,-30 -27,-33 10,-4 17,-13 17,-26 0,-19 -15,-30 -37,-30l-57 0 0 125 62 0zm-42 -58l38 0c16,0 25,7 25,20 0,12 -10,20 -25,20l-38 0 0 -40zm0 -49l34 0c13,0 20,5 20,16 0,10 -7,16 -20,16l-34 0 0 -32zm95 106c2,1 5,1 8,1 16,0 26,-6 32,-20 5,-15 8,-33 8,-61l1 -26 45 0 0 107 19 0 0 -125 -83 0 -1 42c0,23 -1,37 -5,49 -3,11 -8,16 -17,16 -3,0 -5,0 -7,-1l0 18zm236 1l0 -18 -72 0 0 -40 56 0 0 -18 -56 0 0 -31 69 0 0 -18 -89 0 0 125 92 0zm42 0l0 -58 65 0 0 58 20 0 0 -125 -20 0 0 49 -65 0 0 -49 -19 0 0 125 19 0zm133 0l69 -92 0 92 20 0 0 -125 -17 0 -69 91 0 -91 -20 0 0 125 17 0zm211 0l0 -18 -72 0 0 -40 57 0 0 -18 -57 0 0 -31 70 0 0 -18 -89 0 0 125 91 0z"/>
   <path class="fil2" d="M413 539l-42 0c-7,-35 -26,-121 -48,-147 2,35 21,106 22,147l-274 0c-3,-41 0,-90 0,-132l0 -200c0,-20 -6,-21 -24,-42 -16,-18 -35,-33 -53,-47 -7,-5 -15,-9 -20,-15 74,6 173,55 232,96 11,8 19,14 30,24 72,57 122,138 155,228 6,16 23,71 22,88z"/>
   <path class="fil2" d="M581 246c-7,-3 -11,-7 -18,-12 -6,-4 -11,-8 -17,-12 -29,-20 -82,-51 -114,-60l5 5c21,16 45,30 66,49 39,35 40,38 73,75 4,6 6,6 6,15 0,12 0,31 -1,42l-69 -74c-38,-36 -94,-81 -139,-107 -83,-46 -189,-87 -301,-91 -3,-9 -1,-36 -1,-48l510 0 0 218z"/>
   <path class="fil3" d="M581 506l0 33 -53 0c-8,-32 -16,-57 -28,-86 -5,-13 -12,-29 -18,-40 -6,-9 -18,-29 -20,-37l46 0c14,0 10,2 24,24 4,6 8,12 12,19 8,16 37,69 37,87z"/>
   <path class="fil3" d="M500 353c-69,0 -47,6 -70,-22 -9,-13 -24,-32 -35,-43 -5,-5 -15,-16 -19,-22 12,0 43,-3 51,2 12,8 65,70 73,85z"/>
   <path class="fil3" d="M399 244l-42 0c-8,0 -7,-1 -11,-5 -23,-21 -56,-41 -66,-51 44,-3 43,-3 70,16 9,6 17,13 25,19 4,3 8,6 12,9l12 12z"/>
   <path class="fil3" d="M293 170c-40,3 -40,1 -68,-14 -9,-4 -17,-9 -26,-13 -9,-4 -22,-8 -28,-14 35,-3 41,1 68,13 12,5 48,21 54,28z"/>
   <path class="fil3" d="M164 115c-29,3 -39,-2 -64,-10 -17,-5 -42,-13 -59,-16 21,0 110,17 123,26z"/>
  </g>
 </g>
</svg>
